<svg xmlns="http://www.w3.org/2000/svg" width="626" height="74" viewBox="0 0 626 74"><path fill="#0a8ecd" d="M46.65 69.87L46.65 69.87Q45.13 71.18 41.91 72.16Q38.70 73.14 34.88 73.14L34.88 73.14Q30.30 73.14 27.03 71.78Q23.76 70.41 22.56 68.02L22.56 68.02Q21.36 65.51 19.62 61.53Q17.88 57.55 15.97 52.65Q14.06 47.74 12.04 42.24Q10.03 36.73 8.18 31.07Q6.32 25.40 4.69 19.95Q3.05 14.50 1.85 9.70L1.85 9.70Q3.38 8.18 6.27 6.92Q9.16 5.67 12.43 5.67L12.43 5.67Q16.46 5.67 19.02 7.36Q21.58 9.05 22.78 13.63L22.78 13.63Q25.72 24.31 28.72 34.06Q31.72 43.82 34.99 54.39L34.99 54.39L35.64 54.39Q38.59 44.15 41.69 32.05Q44.80 19.95 47.63 7.96L47.63 7.96Q49.59 6.98 51.83 6.32Q54.06 5.67 56.90 5.67L56.90 5.67Q60.93 5.67 63.77 7.47Q66.60 9.27 66.60 13.41L66.60 13.41Q66.60 15.81 65.45 20.38Q64.31 24.96 62.51 30.68Q60.71 36.41 58.48 42.62Q56.24 48.83 54.01 54.34Q51.77 59.84 49.81 64.04Q47.85 68.23 46.65 69.87ZM129.60 45.56L129.60 45.56Q129.60 52.10 127.58 57.33Q125.57 62.57 121.81 66.22Q118.05 69.87 112.81 71.83Q107.58 73.79 101.04 73.79L101.04 73.79Q94.50 73.79 89.27 71.89Q84.04 69.98 80.28 66.33Q76.52 62.68 74.50 57.44Q72.48 52.21 72.48 45.56L72.48 45.56Q72.48 39.13 74.56 33.90Q76.63 28.67 80.39 25.02Q84.15 21.36 89.38 19.40Q94.61 17.44 101.04 17.44L101.04 17.44Q107.47 17.44 112.71 19.46Q117.94 21.47 121.70 25.12Q125.46 28.78 127.53 34.01Q129.60 39.24 129.60 45.56ZM101.04 31.94L101.04 31.94Q96.46 31.94 93.96 35.48Q91.45 39.02 91.45 45.56L91.45 45.56Q91.45 52.43 93.96 55.86Q96.46 59.30 101.04 59.30L101.04 59.30Q105.62 59.30 108.13 55.81Q110.63 52.32 110.63 45.56L110.63 45.56Q110.63 39.02 108.13 35.48Q105.62 31.94 101.04 31.94ZM190.75 37.93L190.75 71.94Q189.55 72.27 187.32 72.59Q185.08 72.92 182.47 72.92L182.47 72.92Q177.02 72.92 174.62 71.12Q172.22 69.32 172.22 64.20L172.22 64.20L172.22 38.48Q172.22 35.10 170.20 33.52Q168.19 31.94 164.92 31.94L164.92 31.94Q162.74 31.94 160.83 32.48Q158.92 33.03 157.18 33.90L157.18 33.90L157.18 71.94Q155.98 72.27 153.74 72.59Q151.51 72.92 148.89 72.92L148.89 72.92Q143.44 72.92 141.05 71.12Q138.65 69.32 138.65 64.20L138.65 64.20L138.65 31.39Q138.65 28.45 139.90 26.60Q141.16 24.74 143.33 23.22L143.33 23.22Q147.04 20.60 152.65 19.02Q158.27 17.44 165.13 17.44L165.13 17.44Q177.45 17.44 184.10 22.84Q190.75 28.23 190.75 37.93L190.75 37.93ZM249.28 55.81L249.28 55.81Q247.87 57.01 245.63 57.72Q243.40 58.42 240.45 58.42L240.45 58.42Q236.53 58.42 233.97 57.44Q231.41 56.46 230.64 54.06L230.64 54.06Q227.59 44.47 225.63 38.53Q223.67 32.59 222.58 28.12L222.58 28.12L222.03 28.12Q221.71 34.55 221.54 39.84Q221.38 45.13 221.32 50.14Q221.27 55.15 221.11 60.28Q220.94 65.40 220.62 71.61L220.62 71.61Q219.20 72.16 216.91 72.54Q214.62 72.92 212.33 72.92L212.33 72.92Q207.54 72.92 204.87 71.40Q202.19 69.87 202.19 65.84L202.19 65.84Q202.19 62.46 202.52 55.97Q202.85 49.49 203.34 41.64Q203.83 33.79 204.38 25.51Q204.92 17.22 205.36 10.25L205.36 10.25Q206.23 8.83 209.17 7.19Q212.11 5.56 217.45 5.56L217.45 5.56Q223.23 5.56 226.50 7.36Q229.77 9.16 231.30 13.19L231.30 13.19Q232.28 15.81 233.42 19.18Q234.57 22.56 235.71 26.16Q236.86 29.76 237.95 33.30Q239.04 36.84 239.91 39.68L239.91 39.68L240.45 39.68Q243.07 30.52 245.69 21.96Q248.30 13.41 250.48 7.63L250.48 7.63Q252.12 6.76 254.68 6.16Q257.24 5.56 260.40 5.56L260.40 5.56Q265.74 5.56 269.12 7.14Q272.50 8.72 273.04 11.66L273.04 11.66Q273.48 13.84 273.97 18.37Q274.46 22.89 275.01 28.56Q275.55 34.23 276.10 40.55Q276.64 46.87 277.13 52.70Q277.62 58.53 277.95 63.38Q278.28 68.23 278.39 70.85L278.39 70.85Q276.53 71.94 274.52 72.43Q272.50 72.92 269.34 72.92L269.34 72.92Q265.20 72.92 262.36 71.50Q259.53 70.09 259.31 65.95L259.31 65.95Q258.66 54.06 258.49 44.58Q258.33 35.10 258.00 28.67L258.00 28.67L257.46 28.67Q256.37 32.92 254.30 39.35Q252.23 45.78 249.28 55.81ZM332.12 48.72L304.98 52.87Q306.51 56.79 310.10 58.37Q313.70 59.95 318.17 59.95L318.17 59.95Q322.75 59.95 326.89 58.81Q331.03 57.66 333.54 56.14L333.54 56.14Q335.28 57.23 336.48 59.19Q337.68 61.15 337.68 63.33L337.68 63.33Q337.68 66.05 336.16 68.02Q334.63 69.98 331.85 71.29Q329.07 72.59 325.26 73.19Q321.44 73.79 316.86 73.79L316.86 73.79Q310.43 73.79 304.93 71.99Q299.42 70.20 295.39 66.60Q291.36 63.00 289.07 57.55Q286.78 52.10 286.78 44.80L286.78 44.80Q286.78 37.61 289.12 32.43Q291.47 27.25 295.34 23.93Q299.20 20.60 304.11 19.02Q309.01 17.44 314.14 17.44L314.14 17.44Q319.91 17.44 324.66 19.18Q329.40 20.93 332.83 23.98Q336.26 27.03 338.12 31.28Q339.97 35.53 339.97 40.55L339.97 40.55Q339.97 44.25 337.90 46.22Q335.83 48.18 332.12 48.72L332.12 48.72ZM314.25 30.96L314.25 30.96Q310.10 30.96 307.33 33.46Q304.55 35.97 304.00 40.55L304.00 40.55L322.53 37.50Q322.42 36.41 321.88 35.26Q321.33 34.12 320.35 33.14Q319.37 32.16 317.84 31.56Q316.32 30.96 314.25 30.96ZM367.44 34.66L367.44 71.94Q366.24 72.27 364.01 72.59Q361.77 72.92 359.15 72.92L359.15 72.92Q353.70 72.92 351.31 71.12Q348.91 69.32 348.91 64.20L348.91 64.20L348.91 31.83Q348.91 28.67 350.54 26.32Q352.18 23.98 355.01 22.24L355.01 22.24Q358.83 19.95 363.90 18.75Q368.96 17.55 374.52 17.55L374.52 17.55Q386.40 17.55 386.40 25.94L386.40 25.94Q386.40 27.90 385.86 29.59Q385.31 31.28 384.55 32.48L384.55 32.48Q382.48 32.05 378.56 32.05L378.56 32.05Q375.72 32.05 372.73 32.70Q369.73 33.35 367.44 34.66L367.44 34.66ZM423.57 32.05L423.57 32.05Q420.85 32.05 418.40 32.92Q415.94 33.79 414.15 35.53Q412.35 37.28 411.26 39.84Q410.17 42.40 410.17 45.78L410.17 45.78Q410.17 52.54 413.98 55.81Q417.80 59.08 423.46 59.08L423.46 59.08Q426.73 59.08 429.24 58.26Q431.75 57.44 433.60 56.57L433.60 56.57Q435.67 58.10 436.71 59.84Q437.74 61.59 437.74 64.09L437.74 64.09Q437.74 68.45 433.44 71.07Q429.13 73.68 421.18 73.68L421.18 73.68Q414.31 73.68 408.80 71.89Q403.30 70.09 399.43 66.54Q395.56 63.00 393.49 57.82Q391.42 52.65 391.42 45.78L391.42 45.78Q391.42 38.59 393.76 33.25Q396.11 27.90 400.14 24.42Q404.17 20.93 409.46 19.18Q414.74 17.44 420.63 17.44L420.63 17.44Q428.48 17.44 432.73 20.27Q436.98 23.11 436.98 27.58L436.98 27.58Q436.98 29.65 436.00 31.45Q435.02 33.25 433.71 34.55L433.71 34.55Q431.86 33.68 429.24 32.86Q426.63 32.05 423.57 32.05ZM469.68 60.28L469.68 60.28Q471.53 60.28 473.77 59.90Q476.00 59.51 477.09 58.86L477.09 58.86L477.09 50.14L469.24 50.79Q466.19 51.01 464.23 52.10Q462.27 53.19 462.27 55.37L462.27 55.37Q462.27 57.55 463.96 58.91Q465.65 60.28 469.68 60.28ZM468.81 17.44L468.81 17.44Q474.69 17.44 479.55 18.64Q484.40 19.84 487.83 22.29Q491.26 24.74 493.12 28.50Q494.97 32.26 494.97 37.39L494.97 37.39L494.97 61.80Q494.97 64.64 493.39 66.44Q491.81 68.23 489.63 69.54L489.63 69.54Q482.54 73.79 469.68 73.79L469.68 73.79Q463.90 73.79 459.27 72.70Q454.64 71.61 451.31 69.43Q447.99 67.25 446.19 63.87Q444.39 60.50 444.39 56.03L444.39 56.03Q444.39 48.51 448.86 44.47Q453.33 40.44 462.70 39.46L462.70 39.46L476.98 37.93L476.98 37.17Q476.98 34.01 474.20 32.65Q471.42 31.28 466.19 31.28L466.19 31.28Q462.16 31.28 458.18 32.16Q454.20 33.03 451.04 34.34L451.04 34.34Q449.62 33.35 448.64 31.34Q447.66 29.32 447.66 27.14L447.66 27.14Q447.66 24.31 449.03 22.62Q450.39 20.93 453.22 19.73L453.22 19.73Q456.38 18.53 460.69 17.99Q464.99 17.44 468.81 17.44ZM532.03 17.44L532.03 17.44Q536.72 17.44 540.09 18.64L540.09 18.64L540.09 0.98Q541.29 0.65 543.53 0.33Q545.76 0 548.38 0L548.38 0Q553.83 0 556.23 1.80Q558.63 3.60 558.63 8.72L558.63 8.72L558.63 60.39Q558.63 65.51 553.83 68.56L553.83 68.56Q550.67 70.63 545.71 72.21Q540.75 73.79 534.21 73.79L534.21 73.79Q519.93 73.79 511.97 66.76Q504.02 59.73 504.02 45.78L504.02 45.78Q504.02 38.59 506.20 33.25Q508.38 27.90 512.14 24.42Q515.90 20.93 521.02 19.18Q526.14 17.44 532.03 17.44ZM540.20 57.77L540.20 33.14Q539.00 32.59 537.59 32.26Q536.17 31.94 534.64 31.94L534.64 31.94Q528.98 31.94 525.87 35.37Q522.76 38.80 522.76 45.78L522.76 45.78Q522.76 52.65 525.71 55.92Q528.65 59.19 534.10 59.19L534.10 59.19Q536.06 59.19 537.70 58.75Q539.33 58.32 540.20 57.77L540.20 57.77ZM625.01 45.56L625.01 45.56Q625.01 52.10 622.99 57.33Q620.97 62.57 617.21 66.22Q613.45 69.87 608.22 71.83Q602.99 73.79 596.45 73.79L596.45 73.79Q589.91 73.79 584.68 71.89Q579.44 69.98 575.68 66.33Q571.92 62.68 569.91 57.44Q567.89 52.21 567.89 45.56L567.89 45.56Q567.89 39.13 569.96 33.90Q572.03 28.67 575.79 25.02Q579.55 21.36 584.78 19.40Q590.02 17.44 596.45 17.44L596.45 17.44Q602.88 17.44 608.11 19.46Q613.34 21.47 617.10 25.12Q620.86 28.78 622.93 34.01Q625.01 39.24 625.01 45.56ZM596.45 31.94L596.45 31.94Q591.87 31.94 589.36 35.48Q586.86 39.02 586.86 45.56L586.86 45.56Q586.86 52.43 589.36 55.86Q591.87 59.30 596.45 59.30L596.45 59.30Q601.03 59.30 603.53 55.81Q606.04 52.32 606.04 45.56L606.04 45.56Q606.04 39.02 603.53 35.48Q601.03 31.94 596.45 31.94Z"></path></svg>